<svg
   xmlns:dc="http://purl.org/dc/elements/1.1/"
   xmlns:cc="http://creativecommons.org/ns#"
   xmlns:rdf="http://www.w3.org/1999/02/22-rdf-syntax-ns#"
   xmlns:svg="http://www.w3.org/2000/svg"
   xmlns="http://www.w3.org/2000/svg"
   viewBox="0 0 150 45"
   height="45mm"
   width="150mm">
  <g transform="translate(-29.33,-126.69)">
    <g transform="matrix(0.35,0,0,-0.35,-33.87,262.22)">
          
          <!--H-->
          <g transform="translate(184.82,375.58)">
            <path
               d="m 0,0 c 0,1.013 0.911,1.924 1.924,1.924 h 9.417 c 1.114,0 1.923,-0.911 1.923,-1.924 V -26.832 H 46.271 V 0 c 0,1.013 0.81,1.924 1.923,1.924 h 9.316 c 1.013,0 1.925,-0.911 1.925,-1.924 v -67.028 c 0,-1.011 -0.912,-1.923 -1.925,-1.923 h -9.316 c -1.113,0 -1.923,0.912 -1.923,1.923 v 27.945 H 13.264 v -27.945 c 0,-1.011 -0.809,-1.923 -1.923,-1.923 H 1.924 C 0.911,-68.951 0,-68.039 0,-67.028 Z"
               style="fill:#1f2d59" /></g>
      
          <!--A-->
          <g transform="translate(297.22,330.83)">
            <path
               d="M 0,0 -10.125,22.275 H -10.43 L -20.351,0 Z m -43.74,-21.567 31.49,68.142 c 0.303,0.608 0.809,1.114 1.719,1.114 h 1.013 c 1.013,0 1.417,-0.506 1.722,-1.114 l 31.185,-68.142 c 0.608,-1.316 -0.201,-2.631 -1.722,-2.631 h -8.809 c -1.517,0 -2.227,0.606 -2.936,2.024 L 4.96,-11.239 h -30.271 l -4.962,-10.935 c -0.406,-1.012 -1.318,-2.024 -2.936,-2.024 h -8.81 c -1.519,0 -2.329,1.315 -1.721,2.631"
               style="fill:#1f2d59" /></g>
      
          <!--K-->
          <g transform="translate(329.82,375.07)">
            <path
               d="m 0,0 c 0,1.317 1.013,2.431 2.43,2.431 h 8.911 c 1.316,0 2.43,-1.114 2.43,-2.431 V -27.336 L 39.286,1.418 c 0.405,0.506 1.011,1.013 1.923,1.013 h 10.127 c 1.92,0 2.934,-2.127 1.619,-3.646 L 26.528,-30.982 54.879,-64.901 c 1.011,-1.316 0.203,-3.543 -1.824,-3.543 H 42.021 c -1.013,0 -1.623,0.405 -1.826,0.708 l -26.424,32.602 v -30.88 c 0,-1.317 -1.114,-2.43 -2.43,-2.43 H 2.43 c -1.417,0 -2.43,1.113 -2.43,2.43 z"
               style="fill:#1f2d59" /></g>
      
          <!--R-->
          <g transform="translate(425.61,345.21)">
            <path
               d="m 0,0 c 5.368,0 10.024,4.658 10.024,10.327 0,5.366 -4.656,9.821 -10.024,9.821 H -16.503 V 0 Z m -29.767,30.375 c 0,1.013 0.81,1.924 1.924,1.924 H 1.114 c 12.149,0 22.074,-9.72 22.074,-21.769 0,-9.315 -6.177,-16.909 -14.986,-20.453 l 13.872,-25.716 c 0.708,-1.317 0,-2.937 -1.723,-2.937 H 9.72 c -0.91,0 -1.417,0.507 -1.618,0.912 l -13.468,26.83 h -11.238 v -25.819 c 0,-1.011 -0.913,-1.923 -1.925,-1.923 h -9.314 c -1.114,0 -1.924,0.912 -1.924,1.923 z"
               style="fill:#1f2d59" /></g>
      
          <!--O-->
          <g transform="translate(494.57,318.78)">
            <path
               d="M 0,0 C 12.755,0 23.286,10.428 23.286,23.186 23.286,35.943 12.755,46.573 0,46.573 -12.758,46.573 -23.186,35.943 -23.186,23.186 -23.186,10.428 -12.758,0 0,0 m 0,59.736 c 20.249,0 36.447,-16.3 36.447,-36.55 0,-20.25 -16.198,-36.351 -36.447,-36.351 -20.252,0 -36.35,16.101 -36.35,36.351 0,20.25 16.098,36.55 36.35,36.55"
               style="fill:#1f2d59" /></g>
      
          <!--N-->
          <g transform="translate(544.29,376.69)">
            <path
               d="m 0,0 c 0,1.012 0.913,1.822 1.926,1.822 h 2.53 l 42.12,-44.752 h 0.102 v 41.816 c 0,1.013 0.81,1.925 1.922,1.925 h 9.315 c 1.013,0 1.925,-0.912 1.925,-1.925 v -68.142 c 0,-1.011 -0.912,-1.823 -1.925,-1.823 h -2.43 l -42.322,46.475 h -0.101 v -43.538 c 0,-1.011 -0.809,-1.923 -1.923,-1.923 H 1.926 C 0.913,-70.065 0,-69.153 0,-68.142 Z"
               style="fill:#1f2d59" /></g>
      
          <!--circle in power thing-->
          <g transform="translate(506.28,352.57)">
            <path
               d="m 0,0 c 3.025,-3.023 4.895,-7.202 4.895,-11.817 0,-9.229 -7.479,-16.712 -16.71,-16.712 -9.229,0 -16.711,7.483 -16.711,16.712 0,4.615 1.871,8.794 4.893,11.817 0,0 2.114,1.998 4.392,-0.28 2.084,-2.083 0,-4.111 0,-4.111 -1.9,-1.901 -3.076,-4.526 -3.076,-7.426 0,-5.799 4.704,-10.501 10.502,-10.501 5.798,0 10.5,4.702 10.5,10.501 0,2.9 -1.176,5.526 -3.08,7.427 0,0 -2.11,1.995 0,4.108 C -1.848,2.262 0,0 0,0"
               style="fill:#d7b113" /></g>
      
          <!--top line in power thing-->
          <g transform="translate(497.65,344.52)">
            <path
               d="m 0,0 c 0,-1.753 -1.427,-3.175 -3.179,-3.175 -1.754,0 -3.18,1.422 -3.18,3.175 v 13.457 c 0,1.754 1.426,3.177 3.18,3.177 1.752,0 3.179,-1.423 3.179,-3.177 z"
               style="fill:#d7b113" /></g>
      
          <!--part of hand?-->
          <g transform="translate(527.76,269.42)">
            <path
               d="M 0,0 C 0.564,3.095 2.413,13.609 2.402,18.724 2.401,23.809 1.008,35.328 0.58,38.738 l -0.023,0.186 c -0.11,0.766 -0.553,1.45 -1.228,1.949 -0.435,0.327 -0.968,0.578 -1.574,0.724 -0.672,0.165 -1.384,0.193 -2.118,0.083 h -0.006 c -0.802,-0.116 -1.546,-0.391 -2.214,-0.815 l -1.159,-0.742 -0.835,1.093 c -0.227,0.291 -0.496,0.558 -0.808,0.788 -0.515,0.387 -1.134,0.674 -1.816,0.834 -0.722,0.179 -1.473,0.211 -2.236,0.102 l -0.006,-0.005 c -0.953,-0.137 -1.846,-0.498 -2.584,-1.044 l -1.203,-0.888 -0.888,1.199 c -0.235,0.315 -0.519,0.596 -0.845,0.839 -0.516,0.384 -1.133,0.675 -1.82,0.835 -0.719,0.175 -1.467,0.21 -2.223,0.097 h -0.004 c -0.779,-0.113 -1.502,-0.37 -2.152,-0.762 l -1.933,-1.174 -0.323,2.235 -2.415,16.531 c -0.253,1.748 -1.157,3.263 -2.401,4.195 -0.532,0.394 -1.129,0.685 -1.767,0.838 -0.536,0.133 -1.083,0.159 -1.626,0.079 l -0.004,-0.002 c -2.723,-0.396 -4.557,-3.336 -4.089,-6.551 l 4.363,-29.894 0.461,-3.161 -2.725,1.667 -1.979,1.211 c -0.752,0.412 -1.489,0.703 -2.195,0.876 -0.774,0.19 -1.518,0.23 -2.228,0.126 -0.839,-0.123 -1.639,-0.454 -2.409,-0.99 -0.734,-0.524 -1.154,-1.199 -1.233,-2.007 -0.155,-1.52 0.967,-3.184 1.583,-3.849 0.077,-0.085 6.975,-8 9.49,-11.682 2.084,-3.051 5.441,-8.079 9.971,-14.953 0.255,-0.388 0.41,-0.614 0.434,-0.658 0.029,-0.04 0.06,-0.072 0.099,-0.101 0.038,-0.028 0.077,-0.048 0.121,-0.056 0.039,-0.012 0.075,-0.016 0.115,-0.008 l 25.537,3.721 c 0.148,0.02 0.262,0.129 0.294,0.279 z"
               style="fill:#1f2d59" /></g>
      
          <!--also part of hand???-->
          <g transform="translate(527.76,269.42)">
            <path
               d="M 0,0 C 0.564,3.095 2.413,13.609 2.402,18.724 2.401,23.809 1.008,35.328 0.58,38.738 l -0.023,0.186 c -0.11,0.766 -0.553,1.45 -1.228,1.949 -0.435,0.327 -0.968,0.578 -1.574,0.724 -0.672,0.165 -1.384,0.193 -2.118,0.083 h -0.006 c -0.802,-0.116 -1.546,-0.391 -2.214,-0.815 l -1.159,-0.742 -0.835,1.093 c -0.227,0.291 -0.496,0.558 -0.808,0.788 -0.515,0.387 -1.134,0.674 -1.816,0.834 -0.722,0.179 -1.473,0.211 -2.236,0.102 l -0.006,-0.005 c -0.953,-0.137 -1.846,-0.498 -2.584,-1.044 l -1.203,-0.888 -0.888,1.199 c -0.235,0.315 -0.519,0.596 -0.845,0.839 -0.516,0.384 -1.133,0.675 -1.82,0.835 -0.719,0.175 -1.467,0.21 -2.223,0.097 h -0.004 c -0.779,-0.113 -1.502,-0.37 -2.152,-0.762 l -1.933,-1.174 -0.323,2.235 -2.415,16.531 c -0.253,1.748 -1.157,3.263 -2.401,4.195 -0.532,0.394 -1.129,0.685 -1.767,0.838 -0.536,0.133 -1.083,0.159 -1.626,0.079 l -0.004,-0.002 c -2.723,-0.396 -4.557,-3.336 -4.089,-6.551 l 4.363,-29.894 0.461,-3.161 -2.725,1.667 -1.979,1.211 c -0.752,0.412 -1.489,0.703 -2.195,0.876 -0.774,0.19 -1.518,0.23 -2.228,0.126 -0.839,-0.123 -1.639,-0.454 -2.409,-0.99 -0.734,-0.524 -1.154,-1.199 -1.233,-2.007 -0.155,-1.52 0.967,-3.184 1.583,-3.849 0.077,-0.085 6.975,-8 9.49,-11.682 2.084,-3.051 5.441,-8.079 9.971,-14.953 0.255,-0.388 0.41,-0.614 0.434,-0.658 0.029,-0.04 0.06,-0.072 0.099,-0.101 0.038,-0.028 0.077,-0.048 0.121,-0.056 0.039,-0.012 0.075,-0.016 0.115,-0.008 l 25.537,3.721 c 0.148,0.02 0.262,0.129 0.294,0.279 z"
               style="fill:none;stroke:#ffffff;stroke-width:2;stroke-linecap:butt;stroke-linejoin:miter;stroke-miterlimit:10;stroke-dasharray:none;stroke-opacity:1"
               id="path145" /></g>
      
          <!--2-->
          <g transform="translate(538.57,273.21)">
            <path
               d="m 0,0 c 2.315,2.811 6.744,8.57 9.098,11.698 1.087,1.333 1.791,2.704 1.791,3.899 0,1.578 -1.195,3.197 -3.726,3.197 -1.685,0 -3.125,-1.195 -3.933,-2.075 -0.28,-0.281 -0.667,-0.281 -0.948,0 l -1.685,1.687 c -0.212,0.21 -0.284,0.632 -0.036,0.912 0,0 2.741,3.444 6.919,3.444 5.023,0 7.834,-3.198 7.834,-6.991 0,-2.283 -0.984,-3.721 -2.355,-5.691 C 11.449,7.938 8.78,4.634 6.92,2.282 h 7.585 c 0.351,0 0.668,-0.315 0.668,-0.667 v -2.426 c 0,-0.35 -0.317,-0.665 -0.668,-0.665 H 0.665 C 0.28,-1.476 0,-1.161 0,-0.811 Z"
               style="fill:#1f2d59" /></g>
          
          <!--0-->
          <g transform="translate(570.89,283.67)">
            <path
               d="M 0,0 C 0,5.197 -1.546,8.148 -4.249,8.148 -6.954,8.148 -8.5,5.197 -8.5,0 c 0,-5.235 1.546,-8.149 4.251,-8.149 C -1.546,-8.149 0,-5.235 0,0 m -13.101,0 c 0,7.691 3.231,12.294 8.852,12.294 5.62,0 8.853,-4.603 8.853,-12.294 0,-7.693 -3.233,-12.294 -8.853,-12.294 -5.621,0 -8.852,4.601 -8.852,12.294"
               style="fill:#1f2d59" /></g>
          
          <!--1-->
          <g transform="translate(582.59,289.22)">
            <path d="m 0,0 -3.09,-0.665 c -0.316,-0.071 -0.668,0.138 -0.704,0.456 l -0.21,1.72 c -0.034,0.282 0.034,0.491 0.176,0.632 L 1.23,6.394 H 3.689 C 4.04,6.394 4.32,6.078 4.32,5.728 v -22.555 c 0,-0.351 -0.28,-0.665 -0.631,-0.665 H 0.668 C 0.283,-17.492 0,-17.178 0,-16.827 Z"
               style="fill:#1f2d59;fill-opacity:1;fill-rule:nonzero;stroke:none"
               id="path157" /></g> 
          
          <!--7-->
          <g transform="translate(592.04,272.78)">
            <path d="m 0,0 9.133,19.039 h -9.274 c -0.351,0 -0.669,0.316 -0.669,0.668 v 2.46 c 0,0.351 0.318,0.666 0.669,0.666 h 14.613 c 0.351,0 0.668,-0.315 0.668,-0.666 V 21.921 L 4.672,-0.104 C 4.426,-0.665 4.074,-1.053 3.478,-1.053 H 0.879 C 0.456,-1.053 0,-0.948 0,-0.388 Z"
               style="fill:#1f2d59;" /></g>
    </g>
  </g>
</svg>